<svg xmlns="http://www.w3.org/2000/svg" xmlns:xlink="http://www.w3.org/1999/xlink" fill="none" version="1.1" width="145" height="38" viewBox="0 0 145 38"><defs><clipPath id="master_svg0_451_32543/124_48939"><rect x="0" y="0" width="45.79804229736328" height="38.000003814697266" rx="0"/></clipPath><clipPath id="master_svg1_451_32543/124_48943"><rect x="50.31111145019531" y="4.44140625" width="94.68888854980469" height="33.35523986816406" rx="0"/></clipPath></defs><g><g clip-path="url(#master_svg0_451_32543/124_48939)"><g><path d="M34.6925475,27.6620625L40.8468375,37.100862500000005L45.7980375,33.6156625L45.7591375,33.5422625L32.845977500000004,10.1015625L28.7734375,17.7448925Q30.8618375,18.2727425,32.4930875,19.9047525Q34.9041875,22.316962500000002,34.9041875,25.7283625Q34.9041875,26.7390625,34.6925475,27.6620625Z" fill-rule="evenodd" fill="#00CB1B" fill-opacity="1"/></g><g><path d="M27.1192,-0.000027189675165573135L28.3056,1.8587428103248345L31.8171,8.233082810324834L26.8855,17.494672810324836Q26.7795,17.492272810324835,26.6725,17.492272810324835Q23.2627,17.492272810324835,20.8516,19.904472810324833Q18.4405,22.316672810324835,18.4405,25.728072810324836Q18.4405,28.432372810324836,19.9557,30.508772810324835L17.1042,35.863872810324835L0,37.999972810324834L27.1192,-0.000027189675165573135Z" fill-rule="evenodd" fill="#2258F6" fill-opacity="1"/></g><g><ellipse cx="26.672189712524414" cy="25.729860305786133" rx="6.445627212524414" ry="6.448610305786133" fill="#FFB300" fill-opacity="1"/></g></g><g clip-path="url(#master_svg1_451_32543/124_48943)"><g><path d="M59.64971145019531,18.55240625L59.946641450195315,19.49860625C60.141171450195316,20.11840625,60.71651145019531,20.54030625,61.36741145019531,20.54030625C62.39671145019531,20.54030625,63.11541145019531,19.52270625,62.76961145019531,18.55510625L58.219561450195314,5.82508625C57.971801450195315,5.13189025,57.314051450195315,4.66908025,56.576651450195314,4.66908025C55.83839145019531,4.66908025,55.18008145019531,5.13295025,54.932961450195315,5.82728625L50.39767455019531,18.57000625C50.05566645019531,19.53100625,50.76964545019531,20.54030625,51.791371450195314,20.54030625C52.437911450195315,20.54030625,53.00951145019531,20.12120625,53.202771450195314,19.50540625L53.50185145019531,18.55240625C53.70569145019531,17.90290625,54.308631450195314,17.46070625,54.990601450195314,17.46070625L58.16095145019531,17.46070625C58.84292145019531,17.46070625,59.44586145019531,17.90290625,59.64971145019531,18.55240625ZM57.189921450195314,14.95030625L55.956711450195314,14.95030625C55.30831145019531,14.95030625,54.84621145019531,14.32230625,55.04027145019531,13.70480625L56.108401450195316,10.30604625C56.24887145019531,9.859076250000001,56.882261450195315,9.857946250000001,57.02433145019531,10.30441625L58.105331450195315,13.70154625C58.30204145019531,14.31970625,57.83976145019531,14.95030625,57.189921450195314,14.95030625ZM64.58371145019531,14.39913625C64.58371145019531,18.61710625,66.48661145019531,20.72610625,70.28051145019532,20.72610625C72.06331145019531,20.72610625,73.48001145019532,20.23480625,74.53051145019532,19.24620625C75.58701145019532,18.251606250000002,76.10931145019532,16.63990625,76.10931145019532,14.39913625L76.10931145019532,10.76833625C76.10931145019532,8.52754625,75.59911145019531,6.90986625,74.56661145019531,5.92128625C73.54001145019531,4.93270225,72.1414114501953,4.44140625,70.37051145019531,4.44140625C66.51661145019531,4.44140625,64.58371145019531,6.55038625,64.58371145019531,10.76833625L64.58371145019531,14.39913625ZM72.42351145019532,17.14920625C71.97931145019531,17.74230625,71.29501145019532,18.03590625,70.37051145019531,18.03590625C69.40401145019531,18.03590625,68.70771145019532,17.74830625,68.27551145019531,17.17320625C67.84331145019532,16.598006249999997,67.62721145019532,15.65730625,67.62721145019532,14.35719625L67.62721145019532,10.92411625C67.62721145019532,9.54608625,67.84331145019532,8.56349625,68.27551145019531,7.97034625C68.70771145019532,7.37719625,69.40401145019531,7.08361625,70.37051145019531,7.08361625C71.29501145019532,7.08361625,71.97931145019531,7.38918625,72.42351145019532,7.99431625C72.86771145019532,8.59944625,73.08981145019531,9.576046250000001,73.08981145019531,10.92411625L73.08981145019531,14.35719625C73.08981145019531,15.62740625,72.86771145019532,16.56200625,72.42351145019532,17.14920625ZM90.93961145019532,4.66908025C90.22071145019531,4.66908025,89.5677114501953,5.08694325,89.26761145019532,5.73893625L86.59361145019531,11.54921625C86.2518114501953,12.29202625,85.19511145019531,12.29440625,84.84991145019532,11.55313625L82.1397114501953,5.73348625C81.8374114501953,5.08430625,81.18521145019531,4.66908025,80.46801145019532,4.66908025C79.44991145019532,4.66908025,78.62451145019531,5.49283625,78.62451145019531,6.50899625L78.62451145019531,19.033506250000002C78.62451145019531,19.865706250000002,79.30051145019532,20.54030625,80.13431145019531,20.54030625C80.96811145019531,20.54030625,81.64401145019531,19.865706250000002,81.64401145019531,19.033506250000002L81.64401145019531,12.433736249999999C81.64401145019531,12.10318625,82.09291145019532,12.00185625,82.23541145019531,12.300236250000001L84.27541145019532,16.571606250000002C84.54181145019531,17.129406250000002,85.10581145019532,17.484706250000002,85.72501145019531,17.484706250000002C86.34521145019531,17.484706250000002,86.91001145019531,17.12830625,87.17581145019531,16.56900625L89.17681145019532,12.36039625C89.3169114501953,12.065776249999999,89.76001145019532,12.165386250000001,89.76001145019532,12.49148625L89.76001145019532,19.033506250000002C89.76001145019532,19.865706250000002,90.4359114501953,20.54030625,91.2697114501953,20.54030625C92.10351145019531,20.54030625,92.77941145019531,19.865706250000002,92.77941145019531,19.033506250000002L92.77941145019531,6.50543625C92.77941145019531,5.49124625,91.95571145019531,4.66908025,90.93961145019532,4.66908025ZM99.29331145019532,7.29331625L104.31111145019531,7.29331625C105.03711145019531,7.29331625,105.62571145019531,6.70586625,105.62571145019531,5.98119625C105.62571145019531,5.25653625,105.03711145019531,4.66908025,104.31111145019531,4.66908025L98.1628114501953,4.66908025C96.7081114501953,4.66908025,95.52881145019532,5.84608625,95.52881145019532,7.29800625L95.52881145019532,17.91140625C95.52881145019532,19.36330625,96.7081114501953,20.54030625,98.1628114501953,20.54030625L104.31411145019531,20.54030625C105.03851145019532,20.54030625,105.62571145019531,19.95420625,105.62571145019531,19.23120625C105.62571145019531,18.50820625,105.03851145019532,17.92210625,104.31411145019531,17.92210625L99.29331145019532,17.92210625C98.88181145019531,17.92210625,98.54831145019531,17.58920625,98.54831145019531,17.178506249999998L98.54831145019531,14.48240625C98.54831145019531,14.13198625,98.83291145019531,13.84792625,99.18391145019531,13.84792625L103.27261145019531,13.84792625C103.99861145019531,13.84792625,104.58721145019531,13.26046625,104.58721145019531,12.53580625C104.58721145019531,11.81113625,103.99861145019531,11.22368625,103.27261145019531,11.22368625L99.18391145019531,11.22368625C98.83291145019531,11.22368625,98.54831145019531,10.93962625,98.54831145019531,10.58922625L98.54831145019531,8.03688625C98.54831145019531,7.62622625,98.88181145019531,7.29331625,99.29331145019532,7.29331625ZM107.96081145019531,6.17591625L107.96081145019531,19.033506250000002C107.96081145019531,19.865706250000002,108.63681145019531,20.54030625,109.47061145019532,20.54030625C110.30441145019532,20.54030625,110.9803114501953,19.865706250000002,110.9803114501953,19.033506250000002L110.9803114501953,6.17591625C110.9803114501953,5.34371525,110.30441145019532,4.66908025,109.47061145019532,4.66908025C108.63681145019531,4.66908025,107.96081145019531,5.34371525,107.96081145019531,6.17591625Z" fill="#FFFFFF" fill-opacity="1"/></g><g><path d="M51.02986145019531,26.84262Q51.53377145019531,26.74887,52.13923145019531,26.69419Q52.744701450195315,26.639499999999998,53.34627145019531,26.639499999999998Q53.97127145019531,26.639499999999998,54.60017145019531,26.74497Q55.22908145019531,26.84653,55.732991450195314,27.15903Q56.236891450195316,27.46762,56.55330145019531,28.02231Q56.87361145019531,28.57309,56.87361145019531,29.45981Q56.87361145019531,30.26059,56.59627145019531,30.81528Q56.32283145019531,31.369970000000002,55.86580145019531,31.72153Q55.40877145019531,32.07309,54.82673145019531,32.23325Q54.244701450195315,32.3895,53.62361145019531,32.3895Q53.56111145019531,32.3895,53.42830145019531,32.3895Q53.299391450195316,32.3895,53.15486145019531,32.38559Q53.01033145019531,32.37778,52.869701450195315,32.36606Q52.732991450195314,32.35434,52.674391450195316,32.34262L52.674391450195316,35.1395L51.02986145019531,35.1395L51.02986145019531,26.84262ZM53.47908145019531,27.889499999999998Q53.236891450195316,27.889499999999998,53.02205145019531,27.91294Q52.807201450195315,27.932470000000002,52.674391450195316,27.95981L52.674391450195316,31.08481Q52.72127145019531,31.09653,52.81502145019531,31.11216Q52.91267145019531,31.12387,53.02205145019531,31.13169Q53.13142145019531,31.139499999999998,53.232991450195314,31.139499999999998Q53.33455145019531,31.139499999999998,53.38142145019531,31.139499999999998Q53.705641450195316,31.139499999999998,54.02205145019531,31.07309Q54.34236145019531,31.00278,54.59236145019531,30.81919Q54.84627145019531,30.63169,54.994701450195315,30.29966Q55.14705145019531,29.96762,55.14705145019531,29.432470000000002Q55.14705145019531,28.97934,55.00252145019531,28.682470000000002Q54.857991450195314,28.38559,54.62361145019531,28.20591Q54.38923145019531,28.026220000000002,54.088451450195315,27.95981Q53.79158145019531,27.889499999999998,53.47908145019531,27.889499999999998ZM57.70955145019531,29.34653Q58.19002145019531,29.13559,58.85017145019531,29.014499999999998Q59.51033145019531,28.889499999999998,60.22908145019531,28.889499999999998Q60.85411145019531,28.889499999999998,61.272011450195315,29.04184Q61.693911450195316,29.19419,61.940011450195314,29.47544Q62.18611145019531,29.75669,62.28771145019531,30.151220000000002Q62.38921145019531,30.54184,62.38921145019531,31.03012Q62.38921145019531,31.56919,62.35411145019531,32.11216Q62.318911450195316,32.65512,62.31111145019531,33.18247Q62.30331145019531,33.7098,62.33841145019531,34.2059Q62.377511450195314,34.6981,62.522011450195315,35.1395L61.24861145019531,35.1395L60.99861145019531,34.2098L60.940011450195314,34.2098Q60.69781145019531,34.5887,60.27205145019531,34.8661Q59.84627145019531,35.1395,59.174391450195316,35.1395Q58.75642145019531,35.1395,58.41658145019531,35.0106Q58.080641450195316,34.8817,57.84236145019531,34.6434Q57.60408145019531,34.4051,57.47127145019531,34.0809Q57.338451450195315,33.7528,57.338451450195315,33.35044Q57.338451450195315,32.78794,57.58455145019531,32.40122Q57.830641450195316,32.0145,58.29158145019531,31.776220000000002Q58.75642145019531,31.53794,59.39705145019531,31.44419Q60.03767145019531,31.35044,60.83061145019531,31.389499999999998Q60.91271145019531,30.72153,60.73301145019531,30.432470000000002Q60.55331145019531,30.139499999999998,59.932201450195315,30.139499999999998Q59.463451450195315,30.139499999999998,58.94002145019531,30.23716Q58.41658145019531,30.33091,58.080641450195316,30.48716L57.70955145019531,29.34653ZM59.69002145019531,33.8895Q60.15877145019531,33.8895,60.43221145019531,33.67075Q60.709511450195315,33.452,60.84231145019531,33.202L60.84231145019531,32.3895Q60.471311450195316,32.35434,60.12752145019531,32.37778Q59.78377145019531,32.40122,59.518141450195316,32.49106Q59.25642145019531,32.577,59.10017145019531,32.74106Q58.94392145019531,32.90122,58.94392145019531,33.15122Q58.94392145019531,33.50278,59.143141450195316,33.6981Q59.34236145019531,33.8895,59.69002145019531,33.8895ZM67.05721145019531,30.52231Q66.68221145019531,30.389499999999998,66.38531145019532,30.389499999999998Q65.96341145019531,30.389499999999998,65.68221145019531,30.61606Q65.40091145019531,30.84262,65.30331145019531,31.19419L65.30331145019531,35.1395L63.74471145019531,35.1395L63.74471145019531,28.889499999999998L64.9556114501953,28.889499999999998L65.13531145019532,29.83091L65.18221145019531,29.83091Q65.38921145019532,29.37778,65.73691145019531,29.13559Q66.08451145019531,28.889499999999998,66.55331145019531,28.889499999999998Q66.86581145019531,28.889499999999998,67.26031145019532,29.026220000000002L67.05721145019531,30.52231ZM67.36971145019531,28.889499999999998L68.19781145019532,28.889499999999998L68.19781145019532,27.81137L69.76031145019532,27.389499999999998L69.76031145019532,28.889499999999998L71.22131145019532,28.889499999999998L71.22131145019532,30.139499999999998L69.76031145019532,30.139499999999998L69.76031145019532,32.63169Q69.76031145019532,33.30747,69.88531145019532,33.60044Q70.01031145019532,33.8895,70.36191145019531,33.8895Q70.60021145019532,33.8895,70.77201145019531,33.8426Q70.94781145019532,33.7918,71.16271145019532,33.6981L71.44001145019531,34.8036Q71.11581145019531,34.9442,70.68221145019531,35.0418Q70.25251145019531,35.1395,69.80721145019531,35.1395Q68.97911145019532,35.1395,68.58841145019531,34.702Q68.19781145019532,34.2606,68.19781145019532,33.25669L68.19781145019532,30.139499999999998L67.36971145019531,30.139499999999998L67.36971145019531,28.889499999999998ZM72.37751145019531,28.889499999999998L73.93611145019531,28.889499999999998L73.93611145019531,35.1395L72.37751145019531,35.1395L72.37751145019531,28.889499999999998ZM72.14701145019531,27.52622Q72.14701145019531,27.15903,72.40491145019531,26.90122Q72.66271145019532,26.639499999999998,73.11971145019531,26.639499999999998Q73.57671145019532,26.639499999999998,73.8580114501953,26.90122Q74.13921145019532,27.15903,74.13921145019532,27.52622Q74.13921145019532,27.89341,73.8580114501953,28.14341Q73.57671145019532,28.389499999999998,73.11971145019531,28.389499999999998Q72.66271145019532,28.389499999999998,72.40491145019531,28.14341Q72.14701145019531,27.89341,72.14701145019531,27.52622ZM74.86971145019531,28.889499999999998L75.69781145019532,28.889499999999998L75.69781145019532,27.81137L77.26031145019532,27.389499999999998L77.26031145019532,28.889499999999998L78.72131145019532,28.889499999999998L78.72131145019532,30.139499999999998L77.26031145019532,30.139499999999998L77.26031145019532,32.63169Q77.26031145019532,33.30747,77.38531145019532,33.60044Q77.51031145019532,33.8895,77.86191145019531,33.8895Q78.10021145019532,33.8895,78.27201145019531,33.8426Q78.44781145019532,33.7918,78.66271145019532,33.6981L78.94001145019531,34.8036Q78.61581145019531,34.9442,78.18221145019531,35.0418Q77.75251145019531,35.1395,77.30721145019531,35.1395Q76.47911145019532,35.1395,76.08841145019531,34.702Q75.69781145019532,34.2606,75.69781145019532,33.25669L75.69781145019532,30.139499999999998L74.86971145019531,30.139499999999998L74.86971145019531,28.889499999999998ZM79.87751145019531,28.889499999999998L81.43611145019531,28.889499999999998L81.43611145019531,35.1395L79.87751145019531,35.1395L79.87751145019531,28.889499999999998ZM79.64701145019531,27.52622Q79.64701145019531,27.15903,79.90491145019531,26.90122Q80.16271145019532,26.639499999999998,80.61971145019531,26.639499999999998Q81.07671145019532,26.639499999999998,81.3580114501953,26.90122Q81.63921145019532,27.15903,81.63921145019532,27.52622Q81.63921145019532,27.89341,81.3580114501953,28.14341Q81.07671145019532,28.389499999999998,80.61971145019531,28.389499999999998Q80.16271145019532,28.389499999999998,79.90491145019531,28.14341Q79.64701145019531,27.89341,79.64701145019531,27.52622ZM82.7056114501953,32.0145Q82.7056114501953,30.51059,83.4478114501953,29.701999999999998Q84.19391145019532,28.889499999999998,85.5377114501953,28.889499999999998Q86.25641145019532,28.889499999999998,86.78381145019532,29.11606Q87.31501145019531,29.338720000000002,87.6627114501953,29.74887Q88.0103114501953,30.15512,88.18221145019531,30.73716Q88.3580114501953,31.31528,88.3580114501953,32.0145Q88.3580114501953,33.51841,87.61971145019531,34.3309Q86.88141145019532,35.1395,85.5377114501953,35.1395Q84.81891145019532,35.1395,84.2877114501953,34.9168Q83.7603114501953,34.6903,83.40491145019531,34.284Q83.05331145019531,33.8739,82.87751145019531,33.29575Q82.7056114501953,32.71372,82.7056114501953,32.0145ZM84.31501145019531,32.0145Q84.31501145019531,32.41684,84.3853114501953,32.75669Q84.45951145019532,33.09653,84.60411145019532,33.35434Q84.74861145019531,33.60825,84.9830114501953,33.7489Q85.21731145019531,33.8895,85.54161145019532,33.8895Q86.15091145019531,33.8895,86.45171145019532,33.44028Q86.75251145019531,32.98716,86.75251145019531,32.0145Q86.75251145019531,31.17466,86.4752114501953,30.65903Q86.20171145019532,30.139499999999998,85.54161145019532,30.139499999999998Q84.96341145019531,30.139499999999998,84.63921145019532,30.576999999999998Q84.31501145019531,31.014499999999998,84.31501145019531,32.0145ZM93.16661145019532,35.1395L93.16661145019532,31.58091Q93.16661145019532,30.81528,92.9556114501953,30.47934Q92.74471145019531,30.139499999999998,92.24081145019531,30.139499999999998Q91.79941145019532,30.139499999999998,91.49081145019531,30.40903Q91.18611145019531,30.67856,91.05331145019531,31.08091L91.05331145019531,35.1395L89.49471145019531,35.1395L89.49471145019531,28.889499999999998L90.7330114501953,28.889499999999998L90.9127114501953,29.86216L90.95951145019532,29.86216Q91.23691145019532,29.47153,91.69001145019531,29.182470000000002Q92.14701145019532,28.889499999999998,92.86581145019531,28.889499999999998Q93.31111145019531,28.889499999999998,93.65881145019532,29.01059Q94.00641145019532,29.13169,94.24471145019531,29.41294Q94.48691145019532,29.69028,94.60411145019532,30.170749999999998Q94.7252114501953,30.651220000000002,94.7252114501953,31.358249999999998L94.7252114501953,35.1395L93.16661145019532,35.1395ZM103.1705114501953,33.1395L100.59231145019531,33.1395L99.9556114501953,35.1395L98.31111145019531,35.1395L101.33451145019532,26.639499999999998L102.5455114501953,26.639499999999998L105.5728114501953,35.1395L103.84231145019531,35.1395L103.1705114501953,33.1395ZM101.0103114501953,31.889499999999998L102.81111145019531,31.889499999999998L102.18611145019531,30.03794L101.93221145019531,28.72934L101.87361145019531,28.72934L101.62361145019531,30.04966L101.0103114501953,31.889499999999998ZM108.72911145019532,33.327Q108.72911145019532,33.09653,108.52591145019531,32.95591Q108.3228114501953,32.81528,108.02201145019532,32.69809Q107.72131145019532,32.58091,107.36191145019532,32.45591Q107.00251145019531,32.33091,106.70171145019532,32.11216Q106.40091145019531,31.89341,106.1978114501953,31.557470000000002Q105.99471145019531,31.22153,105.99471145019531,30.68637Q105.99471145019531,29.81137,106.52201145019532,29.35044Q107.04941145019532,28.889499999999998,108.0455114501953,28.889499999999998Q108.72911145019532,28.889499999999998,109.27991145019531,29.03403Q109.83451145019532,29.17856,110.14701145019532,29.358249999999998L109.79941145019532,30.49106Q109.52201145019532,30.38169,109.1002114501953,30.26059Q108.68221145019531,30.139499999999998,108.24861145019531,30.139499999999998Q107.55331145019531,30.139499999999998,107.55331145019531,30.69028Q107.55331145019531,30.90903,107.75641145019532,31.045749999999998Q107.95951145019532,31.17856,108.2603114501953,31.295749999999998Q108.56111145019531,31.41294,108.9205114501953,31.54184Q109.27991145019531,31.670749999999998,109.5806114501953,31.87387Q109.88141145019532,32.077,110.08451145019532,32.40512Q110.2877114501953,32.72934,110.2877114501953,33.24106Q110.2877114501953,34.1278,109.7056114501953,34.6356Q109.12361145019531,35.1395,107.95951145019532,35.1395Q107.32671145019532,35.1395,106.7681114501953,34.9793Q106.20951145019532,34.8153,105.86191145019532,34.6004L106.2955114501953,33.43247Q106.56891145019532,33.58872,107.02591145019531,33.7411Q107.4830114501953,33.8895,107.95951145019532,33.8895Q108.31111145019531,33.8895,108.5181114501953,33.7606Q108.72911145019532,33.63169,108.72911145019532,33.327ZM113.72911145019532,33.327Q113.72911145019532,33.09653,113.52591145019531,32.95591Q113.3228114501953,32.81528,113.02201145019532,32.69809Q112.72131145019532,32.58091,112.36191145019532,32.45591Q112.00251145019531,32.33091,111.70171145019532,32.11216Q111.40091145019531,31.89341,111.1978114501953,31.557470000000002Q110.99471145019531,31.22153,110.99471145019531,30.68637Q110.99471145019531,29.81137,111.52201145019532,29.35044Q112.04941145019532,28.889499999999998,113.0455114501953,28.889499999999998Q113.72911145019532,28.889499999999998,114.27991145019531,29.03403Q114.83451145019531,29.17856,115.14701145019531,29.358249999999998L114.79941145019531,30.49106Q114.52201145019531,30.38169,114.1002114501953,30.26059Q113.68221145019531,30.139499999999998,113.24861145019531,30.139499999999998Q112.55331145019531,30.139499999999998,112.55331145019531,30.69028Q112.55331145019531,30.90903,112.75641145019532,31.045749999999998Q112.95951145019532,31.17856,113.2603114501953,31.295749999999998Q113.56111145019531,31.41294,113.9205114501953,31.54184Q114.27991145019531,31.670749999999998,114.5806114501953,31.87387Q114.88141145019532,32.077,115.08451145019531,32.40512Q115.28771145019532,32.72934,115.28771145019532,33.24106Q115.28771145019532,34.1278,114.7056114501953,34.6356Q114.12361145019531,35.1395,112.95951145019532,35.1395Q112.32671145019532,35.1395,111.7681114501953,34.9793Q111.20951145019532,34.8153,110.86191145019532,34.6004L111.2955114501953,33.43247Q111.56891145019532,33.58872,112.02591145019531,33.7411Q112.4830114501953,33.8895,112.95951145019532,33.8895Q113.31111145019531,33.8895,113.5181114501953,33.7606Q113.72911145019532,33.63169,113.72911145019532,33.327ZM116.37751145019531,28.889499999999998L117.93611145019531,28.889499999999998L117.93611145019531,35.1395L116.37751145019531,35.1395L116.37751145019531,28.889499999999998ZM116.14701145019531,27.52622Q116.14701145019531,27.15903,116.40491145019531,26.90122Q116.66271145019532,26.639499999999998,117.11971145019531,26.639499999999998Q117.57671145019532,26.639499999999998,117.8580114501953,26.90122Q118.13921145019532,27.15903,118.13921145019532,27.52622Q118.13921145019532,27.89341,117.8580114501953,28.14341Q117.57671145019532,28.389499999999998,117.11971145019531,28.389499999999998Q116.66271145019532,28.389499999999998,116.40491145019531,28.14341Q116.14701145019531,27.89341,116.14701145019531,27.52622ZM121.97911145019532,33.327Q121.97911145019532,33.09653,121.77591145019531,32.95591Q121.57281145019532,32.81528,121.27201145019531,32.69809Q120.97131145019532,32.58091,120.61191145019531,32.45591Q120.25251145019531,32.33091,119.95171145019532,32.11216Q119.65091145019531,31.89341,119.44781145019532,31.557470000000002Q119.24471145019531,31.22153,119.24471145019531,30.68637Q119.24471145019531,29.81137,119.77201145019531,29.35044Q120.29941145019531,28.889499999999998,121.2955114501953,28.889499999999998Q121.97911145019532,28.889499999999998,122.52991145019531,29.03403Q123.08451145019531,29.17856,123.39701145019531,29.358249999999998L123.04941145019531,30.49106Q122.77201145019531,30.38169,122.35021145019532,30.26059Q121.93221145019531,30.139499999999998,121.49861145019531,30.139499999999998Q120.80331145019531,30.139499999999998,120.80331145019531,30.69028Q120.80331145019531,30.90903,121.00641145019532,31.045749999999998Q121.20951145019531,31.17856,121.51031145019532,31.295749999999998Q121.81111145019531,31.41294,122.1705114501953,31.54184Q122.52991145019531,31.670749999999998,122.8306114501953,31.87387Q123.13141145019532,32.077,123.33451145019531,32.40512Q123.53771145019532,32.72934,123.53771145019532,33.24106Q123.53771145019532,34.1278,122.9556114501953,34.6356Q122.37361145019531,35.1395,121.20951145019531,35.1395Q120.57671145019532,35.1395,120.0181114501953,34.9793Q119.45951145019531,34.8153,119.11191145019531,34.6004L119.5455114501953,33.43247Q119.81891145019532,33.58872,120.27591145019531,33.7411Q120.7330114501953,33.8895,121.20951145019531,33.8895Q121.56111145019531,33.8895,121.7681114501953,33.7606Q121.97911145019532,33.63169,121.97911145019532,33.327ZM123.86971145019531,28.889499999999998L124.69781145019532,28.889499999999998L124.69781145019532,27.81137L126.26031145019532,27.389499999999998L126.26031145019532,28.889499999999998L127.72131145019532,28.889499999999998L127.72131145019532,30.139499999999998L126.26031145019532,30.139499999999998L126.26031145019532,32.63169Q126.26031145019532,33.30747,126.38531145019532,33.60044Q126.51031145019532,33.8895,126.86191145019531,33.8895Q127.10021145019532,33.8895,127.27201145019531,33.8426Q127.44781145019532,33.7918,127.66271145019532,33.6981L127.94001145019531,34.8036Q127.61581145019531,34.9442,127.18221145019531,35.0418Q126.75251145019531,35.1395,126.30721145019531,35.1395Q125.47911145019532,35.1395,125.08841145019531,34.702Q124.69781145019532,34.2606,124.69781145019532,33.25669L124.69781145019532,30.139499999999998L123.86971145019531,30.139499999999998L123.86971145019531,28.889499999999998ZM128.7095114501953,29.34653Q129.1900114501953,29.13559,129.85021145019533,29.014499999999998Q130.51031145019533,28.889499999999998,131.22911145019532,28.889499999999998Q131.85411145019532,28.889499999999998,132.2720114501953,29.04184Q132.69391145019532,29.19419,132.9400114501953,29.47544Q133.1861114501953,29.75669,133.28771145019533,30.151220000000002Q133.38921145019532,30.54184,133.38921145019532,31.03012Q133.38921145019532,31.56919,133.35411145019532,32.11216Q133.31891145019532,32.65512,133.3111114501953,33.18247Q133.3033114501953,33.7098,133.3384114501953,34.2059Q133.3775114501953,34.6981,133.5220114501953,35.1395L132.2486114501953,35.1395L131.9986114501953,34.2098L131.9400114501953,34.2098Q131.69781145019533,34.5887,131.2720114501953,34.8661Q130.84631145019532,35.1395,130.1744114501953,35.1395Q129.75641145019532,35.1395,129.41661145019532,35.0106Q129.0806114501953,34.8817,128.84231145019533,34.6434Q128.60411145019532,34.4051,128.47131145019532,34.0809Q128.3384114501953,33.7528,128.3384114501953,33.35044Q128.3384114501953,32.78794,128.5845114501953,32.40122Q128.8306114501953,32.0145,129.29161145019532,31.776220000000002Q129.75641145019532,31.53794,130.3970114501953,31.44419Q131.03771145019533,31.35044,131.8306114501953,31.389499999999998Q131.91271145019533,30.72153,131.7330114501953,30.432470000000002Q131.5533114501953,30.139499999999998,130.93221145019533,30.139499999999998Q130.4634114501953,30.139499999999998,129.9400114501953,30.23716Q129.41661145019532,30.33091,129.0806114501953,30.48716L128.7095114501953,29.34653ZM130.6900114501953,33.8895Q131.15881145019532,33.8895,131.43221145019533,33.67075Q131.7095114501953,33.452,131.84231145019533,33.202L131.84231145019533,32.3895Q131.47131145019532,32.35434,131.1275114501953,32.37778Q130.78381145019532,32.40122,130.5181114501953,32.49106Q130.25641145019532,32.577,130.10021145019533,32.74106Q129.94391145019532,32.90122,129.94391145019532,33.15122Q129.94391145019532,33.50278,130.1431114501953,33.6981Q130.34231145019533,33.8895,130.6900114501953,33.8895ZM138.41661145019532,35.1395L138.41661145019532,31.58091Q138.41661145019532,30.81528,138.2056114501953,30.47934Q137.99471145019533,30.139499999999998,137.4908114501953,30.139499999999998Q137.0494114501953,30.139499999999998,136.7408114501953,30.40903Q136.4361114501953,30.67856,136.3033114501953,31.08091L136.3033114501953,35.1395L134.74471145019533,35.1395L134.74471145019533,28.889499999999998L135.9830114501953,28.889499999999998L136.16271145019533,29.86216L136.2095114501953,29.86216Q136.4869114501953,29.47153,136.9400114501953,29.182470000000002Q137.3970114501953,28.889499999999998,138.1158114501953,28.889499999999998Q138.5611114501953,28.889499999999998,138.90881145019532,29.01059Q139.25641145019532,29.13169,139.49471145019533,29.41294Q139.7369114501953,29.69028,139.85411145019532,30.170749999999998Q139.97521145019533,30.651220000000002,139.97521145019533,31.358249999999998L139.97521145019533,35.1395L138.41661145019532,35.1395ZM140.61971145019533,28.889499999999998L141.44781145019533,28.889499999999998L141.44781145019533,27.81137L143.01031145019533,27.389499999999998L143.01031145019533,28.889499999999998L144.47131145019532,28.889499999999998L144.47131145019532,30.139499999999998L143.01031145019533,30.139499999999998L143.01031145019533,32.63169Q143.01031145019533,33.30747,143.13531145019533,33.60044Q143.26031145019533,33.8895,143.6119114501953,33.8895Q143.85021145019533,33.8895,144.0220114501953,33.8426Q144.19781145019533,33.7918,144.41271145019533,33.6981L144.6900114501953,34.8036Q144.3658114501953,34.9442,143.93221145019533,35.0418Q143.5025114501953,35.1395,143.05721145019533,35.1395Q142.22911145019532,35.1395,141.8384114501953,34.702Q141.44781145019533,34.2606,141.44781145019533,33.25669L141.44781145019533,30.139499999999998L140.61971145019533,30.139499999999998L140.61971145019533,28.889499999999998Z" fill="#FFFFFF" fill-opacity="1"/></g></g></g></svg>