<svg xmlns="http://www.w3.org/2000/svg" xmlns:xlink="http://www.w3.org/1999/xlink" fill="none" version="1.1" width="80" height="80" viewBox="0 0 80 80"><defs><linearGradient x1="0.000047679470299044624" y1="1" x2="0.9999523162841797" y2="0" id="master_svg0_3101_91041"><stop offset="0%" stop-color="#184BDA" stop-opacity="1"/><stop offset="100%" stop-color="#65A1FE" stop-opacity="1"/></linearGradient></defs><g><g><rect x="0" y="0.000244140625" width="80" height="79.9997787475586" rx="16" fill="url(#master_svg0_3101_91041)" fill-opacity="1"/></g><g><path d="M70,30.8162779296875C70,30.8162779296875,51.1922,69.9998779296875,51.1922,69.9998779296875C51.1922,69.9998779296875,31.5375,29.0417779296875,31.5375,29.0417779296875C31.5375,29.0417779296875,23.8311,46.4687779296875,23.8311,46.4687779296875C23.8311,46.4687779296875,36.710300000000004,46.5038779296875,36.710300000000004,46.5038779296875C36.710300000000004,46.5038779296875,33.7889,52.7418779296875,33.7889,52.7418779296875C33.7889,52.7418779296875,12,52.7418779296875,12,52.7418779296875C12,52.7418779296875,31.5364,11.9998779296875,31.5364,11.9998779296875C31.5364,11.9998779296875,51.2023,53.4613779296875,51.2023,53.4613779296875C51.2023,53.4613779296875,61.8316,30.8184779296875,61.8316,30.8184779296875C61.8316,30.8184779296875,70,30.8162779296875,70,30.8162779296875C70,30.8162779296875,70,30.8162779296875,70,30.8162779296875Z" fill="#FFFFFF" fill-opacity="1"/></g></g></svg>